<svg xmlns="http://www.w3.org/2000/svg" width="32" height="32"><path style="stroke:none;fill-rule:nonzero;fill:#000;fill-opacity:1" d="M7.777 4.52c.391-.075.79-.024 1.184-.04.367-.02.738.063 1.078.196.48.191.828.586 1.176.945a2.49 2.49 0 0 1 .562 1.676c-.03.492.07 1.012-.129 1.48-.132.293-.265.602-.496.836-.3.301-.59.63-.976.813-.469.261-1.012.312-1.535.289-.672.05-1.383-.117-1.903-.559-.281-.293-.617-.547-.8-.918-.18-.3-.286-.636-.348-.98-.024-.254.008-.508-.008-.766a2.772 2.772 0 0 1 .496-1.797c.445-.53.988-1.047 1.7-1.175m.124.765c-.03.02-.093.059-.125.078-.14.016-.297.02-.402.121.02.11.043.215.063.325-.102.03-.2.066-.301.093-.043-.047-.082-.097-.125-.144l-.223.234.125.113c-.004.07-.004.137-.004.204-.043.023-.129.074-.172.097-.066-.02-.136-.035-.203-.05a3.667 3.667 0 0 0-.16.453c-.094.207-.121.433-.156.656.062.058.12.12.18.18v.19c-.208.04-.122.247-.09.388.109.363.257.754.605.949 0 .039 0 .113-.004.148.11.102.223.196.363.239.489.53 1.282.543 1.946.468a9.4 9.4 0 0 0-.196-.203v-.133c.055-.05.106-.101.157-.156h.136c.051.055.102.106.157.156v.2c-.04.027-.121.078-.16.105.55-.191 1.062-.523 1.394-1.012.094-.148.152-.316.258-.457.164-.175.113-.441.152-.664-.039-.097-.058-.21.008-.3.027-.407-.105-.793-.273-1.153-.036-.004-.102-.012-.137-.012-.055-.054-.11-.109-.168-.16.02-.07.035-.14.05-.21-.058-.063-.12-.126-.183-.188-.066.023-.133.043-.2.062-.054-.058-.109-.113-.163-.172a3.95 3.95 0 0 1-.008-.218c-.113-.055-.23-.106-.344-.16-.226-.13-.484-.168-.734-.227-.004.04-.004.125-.004.164l-.168.078a1.644 1.644 0 0 0-.137.02c-.062-.09-.125-.18-.183-.27-.196.031-.422.016-.57.168Zm0 0"/><path style="stroke:none;fill-rule:nonzero;fill:#000;fill-opacity:1" d="M8.156 5.441h.133c.055.051.106.106.16.157V5.8l-.168.078c-.031.004-.094.008-.125.012A6.118 6.118 0 0 0 8 5.73v-.133l.156-.157ZM9.18 5.441h.136l.157.157V5.8c-.043.02-.125.058-.168.082-.032 0-.09.004-.121.008l-.16-.16v-.133c.054-.051.105-.106.156-.157ZM7.645 5.953h.132c.055.05.106.102.16.156v.215a7.996 7.996 0 0 1-.285.09c-.054-.059-.109-.117-.164-.172V6.11l.157-.156ZM8.668 5.953h.133c.054.05.105.102.16.156v.215c-.094.031-.188.063-.285.09a6.978 6.978 0 0 0-.164-.172V6.11l.156-.156ZM9.695 5.953h.133l.156.156v.215c-.093.031-.187.063-.285.09-.054-.059-.11-.117-.164-.172V6.11c.055-.05.106-.105.16-.156ZM7.133 6.465h.133c.054.05.105.105.16.156v.215a7.996 7.996 0 0 1-.285.09 6.978 6.978 0 0 0-.164-.172V6.62l.156-.156ZM8.156 6.465h.133c.055.05.106.101.16.156v.203c-.043.02-.125.063-.168.082-.031 0-.094.004-.125.008A5.969 5.969 0 0 0 8 6.754V6.62l.156-.156ZM9.18 6.465h.136l.157.156v.203c-.043.02-.125.059-.168.082-.032 0-.09.004-.121.008l-.16-.16V6.62c.054-.05.105-.105.156-.156ZM10.203 6.465h.137l.156.156v.203a2.14 2.14 0 0 0-.164.082c-.031 0-.094.004-.125.008l-.16-.16V6.62c.055-.05.105-.105.156-.156ZM6.621 6.977h.133c.055.05.105.105.156.156v.203c-.039.023-.125.062-.164.082-.031 0-.094.008-.125.008-.05-.055-.105-.106-.156-.16v-.133l.156-.156ZM7.645 6.977h.132c.055.05.106.105.16.156v.215a7.998 7.998 0 0 1-.285.09c-.054-.06-.109-.118-.164-.172v-.133l.157-.156ZM8.668 6.977h.133c.054.05.105.105.16.156v.215c-.094.03-.188.062-.285.09a6.976 6.976 0 0 0-.164-.172v-.133c.054-.051.105-.106.156-.156ZM9.695 6.977h.133c.05.05.102.105.156.156v.203l-.168.082c-.03 0-.09.008-.12.008l-.16-.16v-.133c.054-.051.105-.106.16-.156ZM10.719 6.977h.133l.156.156v.203a2.14 2.14 0 0 0-.164.082c-.031 0-.094.008-.125.008l-.16-.16v-.133c.054-.051.105-.106.16-.156ZM7.133 7.488h.133c.054.051.105.106.16.157v.203l-.168.082c-.031 0-.094.008-.125.008a6.12 6.12 0 0 1-.156-.16v-.133l.156-.157ZM8.156 7.488h.133c.055.051.106.106.16.157v.203l-.168.082c-.031 0-.094.008-.125.008A6.118 6.118 0 0 1 8 7.777v-.133l.156-.157ZM9.18 7.488h.136c.051.051.102.106.157.157v.214c-.094.032-.188.063-.286.09l-.164-.172v-.132c.055-.051.106-.106.157-.157ZM10.203 7.488h.137l.156.157v.203l-.168.082c-.027 0-.09.008-.121.008-.055-.051-.105-.106-.16-.16v-.133c.055-.051.105-.106.156-.157ZM6.621 8h.133c.055.05.105.105.156.156v.203c-.039.02-.12.063-.164.082-.031 0-.094.008-.125.008a6.115 6.115 0 0 1-.156-.16v-.133L6.62 8ZM7.645 8h.132c.055.05.106.105.16.156v.215c-.093.031-.187.063-.285.09-.054-.055-.109-.113-.164-.172v-.133L7.645 8ZM8.668 8h.133c.054.05.105.105.16.156v.215c-.094.031-.188.063-.285.09-.055-.059-.11-.113-.164-.172v-.133c.054-.05.105-.105.156-.156ZM9.695 8h.133c.05.05.102.105.156.156v.203c-.043.02-.125.063-.168.082-.027 0-.09.008-.12.008-.055-.05-.106-.105-.16-.16v-.133c.054-.05.105-.105.16-.156ZM10.719 8c.035 0 .11-.004.144-.008.075.098.16.184.184.309-.067.11-.207.125-.317.168-.058-.059-.113-.121-.171-.18v-.133c.054-.05.105-.101.16-.156ZM7.133 8.512h.137c.05.054.101.105.156.156v.203c-.043.024-.13.063-.168.082a1.342 1.342 0 0 1-.125.008l-.156-.156v-.137c.05-.05.105-.102.156-.156ZM8.156 8.512h.137c.05.054.102.105.156.156v.203a3.32 3.32 0 0 1-.168.082c-.031 0-.094.008-.125.008-.05-.05-.101-.106-.156-.16v-.13c.05-.054.105-.105.156-.16ZM9.18 8.512h.136c.051.054.102.105.157.156v.203a3.319 3.319 0 0 1-.168.082c-.028 0-.09.008-.121.008-.055-.05-.106-.106-.16-.16v-.133c.054-.05.105-.102.156-.156ZM10.203 8.512h.137c.05.054.105.105.156.156v.215l-.281.094a6.974 6.974 0 0 1-.168-.176v-.133c.055-.05.105-.102.156-.156ZM7.645 9.023h.132c.055.055.106.106.16.157v.207l-.167.078a1.342 1.342 0 0 1-.125.008c-.051-.051-.102-.106-.157-.157V9.18c.051-.051.106-.102.157-.157ZM8.668 9.023h.137c.05.055.101.106.156.157v.207l-.168.078a1.346 1.346 0 0 1-.121.008c-.055-.051-.106-.106-.16-.157V9.18c.05-.051.105-.102.156-.157ZM9.695 9.023h.133c.05.055.102.106.156.157v.215l-.285.093-.164-.175V9.18c.055-.051.106-.102.16-.157ZM8.156 9.535h.133c.055.055.106.106.16.156v.207l-.168.079a1.342 1.342 0 0 1-.125.007L8 9.828v-.133c.05-.054.105-.105.156-.16ZM20.086 11.313c.77-.067 1.543-.032 2.312-.036 1.313-.054 2.63.5 3.532 1.45a5.12 5.12 0 0 1 1.234 1.765c.211.586.324 1.207.32 1.828.012 3.274-.011 6.543.008 9.817a8.87 8.87 0 0 0-.332.332c-1.562-.028-3.129.004-4.691-.016-.106-.101-.207-.203-.313-.305-.011-2.144 0-4.289-.004-6.433-.015-.43.04-.86-.047-1.281-.058-.582-.289-1.157-.687-1.582a2.678 2.678 0 0 0-1.133-.543c-.601-.036-1.176.238-1.64.601-.508.45-.754 1.121-.797 1.781-.004 2.485.004 4.973-.008 7.457-.106.102-.207.204-.313.309-1.562.016-3.129-.016-4.691.016a13.95 13.95 0 0 0-.348-.332c.02-3.953 0-7.914.012-11.871-.016-.84.016-1.68-.016-2.52.121-.11.23-.223.34-.34 1.567.031 3.133-.008 4.7.02.105.101.21.207.316.308.004.168.004.336.008.504.648-.5 1.43-.812 2.238-.93m.465.727-.188-.066c-.402.062-.793.18-1.164.343 0 .04.004.118.004.157-.121.043-.242.09-.367.035-.09.047-.184.09-.273.133.042.043.082.082.125.12v.208a3.32 3.32 0 0 0-.168.082c-.028 0-.09.004-.122.008a7.711 7.711 0 0 1-.175-.18c-.082.07-.16.14-.243.207.067.062.13.125.196.191v.215c-.098.031-.196.067-.297.094a4.159 4.159 0 0 1-.188-.27h-.328l-.164-.175c.004-.352.004-.704.004-1.059-.508-.035-1.02-.008-1.527-.016-.844.012-1.692-.027-2.535.016 0 .223 0 .445-.008.672.047-.05.097-.098.144-.149l.133.004c.055.051.106.102.156.157v.203c-.039.02-.125.058-.164.082-.03 0-.093.004-.125.008-.047-.051-.097-.098-.144-.149.012.29.012.578 0 .867.047-.05.094-.097.144-.144h.133c.055.05.106.101.156.156 0 .07.004.145.004.215-.097.031-.191.062-.289.09-.047-.055-.097-.106-.148-.16.012.289.012.578 0 .867.047-.047.094-.098.144-.145h.133c.055.051.106.106.156.156v.204c-.039.02-.12.062-.164.082-.03 0-.093.007-.125.007l-.144-.144c.012.285.012.574 0 .863.047-.047.094-.097.144-.144h.133l.156.156c0 .074.004.144.004.215l-.289.094a5.632 5.632 0 0 0-.148-.165c.012.29.012.579 0 .868l.144-.145h.133l.156.156c0 .075.004.145.004.215l-.285.094a5.819 5.819 0 0 0-.152-.156c.012.285.012.574 0 .86l.144-.145h.133c.055.054.106.105.156.16v.203c-.039.02-.125.058-.164.078-.03.004-.093.008-.125.012a5.248 5.248 0 0 0-.144-.149c.012.29.012.578 0 .867.047-.05.094-.097.144-.144h.133c.055.05.106.101.156.156 0 .07.004.14.004.215-.097.027-.191.059-.289.09a2.88 2.88 0 0 0-.148-.16c.008.289.012.578 0 .867.047-.05.094-.098.144-.145h.133c.055.051.106.106.156.157 0 .07.004.14.004.214-.097.032-.191.063-.289.09-.047-.054-.097-.105-.148-.16.012.29.012.578 0 .867.047-.05.097-.097.144-.144h.133c.055.05.106.105.156.156v.203l-.164.082c-.03 0-.093.008-.125.008a5.187 5.187 0 0 1-.14-.148c.004.289.004.578-.004.867.047-.051.097-.098.144-.145h.133c.055.051.106.106.156.156v.204c-.039.02-.12.062-.164.082-.03 0-.093.007-.125.007l-.144-.144c.012.285.012.574 0 .863l.144-.144h.133c.055.05.106.105.156.156 0 .074.004.144.004.215l-.289.093a5.63 5.63 0 0 0-.148-.164c.008.29.012.579 0 .868.047-.047.094-.098.144-.145h.133l.156.156c0 .075.004.145.004.215l-.289.094a5.63 5.63 0 0 0-.148-.164c.012.289.012.578 0 .867l.144-.144h.133c.055.054.106.105.156.16 0 .07.004.14.004.215-.097.027-.191.058-.289.09a2.88 2.88 0 0 0-.148-.16c.008.198.008.402.008.605.199.008.394.011.59.027a2.983 2.983 0 0 0-.126-.25l.188-.176h.129l.168.164c-.004.121-.012.246-.156.27.28-.035.566-.024.851-.016l-.129-.125v-.133c.051-.054.106-.105.156-.16h.133l.16.16v.22c-.039.015-.117.038-.156.05a7.01 7.01 0 0 1 .86-.012l-.13-.125v-.133c.055-.054.106-.105.157-.16h.133l.16.16v.22c-.04.015-.117.038-.156.05.28-.02.566-.043.843.016-.03-.055-.07-.114-.101-.165l-.016-.12.164-.16h.13c.058.058.116.109.175.163-.008.121-.031.235-.148.297.062-.031.12-.058.183-.086v-5.816c.008-.688-.02-1.38.02-2.07.101-.227.172-.465.257-.7a8.053 8.053 0 0 1-.27-.187c0-.035.005-.11.009-.149.05-.05.101-.105.156-.156h.133c.062.063.12.125.183.188.059-.086.122-.172.18-.258-.047-.051-.098-.102-.144-.153v-.132c.054-.051.105-.106.16-.157.031 0 .09.004.12.004.036.032.11.094.145.121.098-.039.188-.101.278-.156l-.192-.191v-.133c.055-.05.106-.102.16-.156.036 0 .11-.004.149-.008.066.094.129.191.172.297a2.81 2.81 0 0 1 1.215-.344 87.568 87.568 0 0 1-.157-.168c0-.035 0-.098-.004-.133.055-.05.106-.105.16-.156h.133l.157.156v.203c-.04.02-.121.059-.164.078.421.024.843.086 1.226.266.059-.066.121-.129.184-.191h.133c.054.054.113.11.171.164-.027.097.012.242-.136.265.144.114.3.16.472.078l.176.168c-.02.094-.008.211-.105.27l.199.223c.027-.035.078-.11.105-.145h.145c.05.055.101.106.156.156v.215c-.086.028-.172.063-.258.094.106.371.293.734.266 1.133.008 2.347.004 4.695 0 7.039.016.187-.074.445.152.535-.039-.102-.078-.2-.117-.297.059-.058.121-.113.18-.172h.129l.16.16v.22c-.04.01-.117.034-.156.046.285-.02.574-.02.859-.008l-.129-.125v-.133l.16-.16h.133c.05.055.102.106.156.16v.223l-.156.047c.285-.023.574-.023.86-.016a3.662 3.662 0 0 1-.13-.12v-.134l.16-.16h.134c.05.055.101.106.156.16v.22c-.04.015-.117.038-.157.05.286-.023.575-.023.86-.016-.031-.027-.094-.09-.129-.12l.004-.134c.05-.054.101-.105.156-.16h.133c.05.055.105.106.156.16v.22c-.039.01-.117.034-.156.05.21-.016.422-.023.629-.027.004-.18.004-.356.004-.536-.082.032-.164.059-.246.086l-.164-.175v-.13c.054-.062.113-.12.171-.183.082.043.165.086.25.125-.02-.246-.015-.496-.011-.746-.082.031-.164.055-.246.086l-.164-.176v-.129a3.82 3.82 0 0 1 .171-.183c.082.043.165.086.25.125-.02-.246-.015-.5-.011-.746-.082.03-.164.054-.246.085a6.976 6.976 0 0 0-.168-.175c.004-.032.004-.098.004-.13.054-.062.113-.124.171-.187.082.047.165.086.25.13-.02-.25-.015-.497-.011-.747-.082.027-.164.055-.246.086l-.164-.176v-.129c.054-.062.113-.125.171-.187.082.047.165.086.25.129-.02-.25-.015-.5-.011-.75-.082.031-.164.058-.246.09-.055-.059-.11-.121-.168-.176.004-.035.004-.098.004-.13.054-.062.113-.124.171-.187.082.047.165.086.25.13-.02-.25-.015-.5-.011-.75-.082.03-.164.058-.246.09a3.615 3.615 0 0 0-.164-.177v-.128c.054-.063.113-.125.171-.188.082.047.165.086.25.129-.02-.25-.015-.5-.011-.75a6.142 6.142 0 0 1-.246.086l-.164-.176v-.129l.171-.183.25.128c-.02-.25-.015-.5-.011-.75-.082.032-.164.06-.246.086l-.164-.175v-.13c.054-.062.113-.12.171-.183l.25.129c-.02-.25-.015-.5-.011-.75-.082.027-.164.059-.246.086a6.976 6.976 0 0 0-.168-.176c.004-.031.004-.094.004-.129.054-.062.113-.12.171-.183.082.043.168.086.254.125-.02-.242-.035-.489-.043-.735a2.01 2.01 0 0 0-.214.078l-.172-.18c.004-.03.004-.097.004-.132.05-.05.101-.102.152-.156.043 0 .125-.008.168-.008-.07-.262-.102-.559-.328-.738a3.5 3.5 0 0 0 .039-.215 4.945 4.945 0 0 0-.121-.184c-.09.016-.176.043-.262.067-.055-.059-.11-.114-.16-.168 0-.036 0-.102-.004-.133.07-.067.137-.13.203-.196-.332-.535-.785-.98-1.289-1.359v.223a3.32 3.32 0 0 0-.168.082c-.027 0-.09.004-.121.008l-.16-.16v-.133c.062-.063.125-.121.183-.18-.07-.047-.144-.09-.214-.133l-.2.082-.12.012a5.967 5.967 0 0 1-.157-.16l-.012-.157c-.402-.117-.828-.324-1.254-.218-.027.008-.086.02-.113.027-.031-.031-.09-.09-.117-.121-.27.008-.555-.05-.793.102a9.003 9.003 0 0 1-.117.015 1.658 1.658 0 0 0-.117-.117c-.27.016-.567-.05-.801.121ZM6.547 11.414c1.293.016 2.59-.004 3.887.008.199.004.406-.04.605.008.129.086.238.203.352.308-.024 2.875 0 5.746-.012 8.617.012 1.91-.012 3.82.012 5.73-.164.134-.282.372-.516.38a402.498 402.498 0 0 0-4.344 0c-.254.031-.39-.211-.55-.36.015-4.773-.004-9.543.011-14.316.137-.176.301-.398.555-.375m.168.645c.066.062.133.129.195.195 0 .07.004.14.004.21-.098.032-.191.067-.285.102 0 .168 0 .34.004.512.097.059.191.117.285.18-.004.078-.004.156-.008.234-.094.031-.187.063-.281.098 0 .172 0 .344.004.515.097.055.191.114.285.18-.004.074-.004.152-.008.23-.094.032-.187.063-.281.098 0 .172 0 .344.004.516.097.055.191.117.285.18-.004.074-.004.152-.008.23-.094.031-.187.066-.281.098 0 .172 0 .343.004.515.097.055.191.118.285.18-.004.078-.004.152-.008.23-.094.032-.187.067-.281.098 0 .172 0 .344.004.516.097.054.191.117.285.18-.004.078-.004.152-.008.23-.094.031-.187.066-.281.098 0 .171 0 .343.004.515.097.055.191.117.285.18-.004.078-.004.152-.008.23-.094.032-.187.067-.281.098 0 .172 0 .344.004.516.097.058.191.117.285.18-.004.077-.004.156-.008.23-.094.031-.187.066-.281.101 0 .168 0 .34.004.512.097.059.191.117.285.18-.004.078-.004.156-.008.234-.094.031-.187.063-.281.098 0 .172 0 .34.004.515.097.055.191.114.285.18-.004.074-.004.152-.008.23-.094.032-.187.063-.281.098 0 .172 0 .344.004.516.097.055.191.117.285.18-.004.074-.004.152-.008.23-.094.031-.187.066-.281.098 0 .172 0 .343.004.515.097.055.191.117.285.18-.004.078-.004.152-.008.23-.094.032-.187.067-.281.098 0 .172 0 .344.004.516.097.054.191.117.285.18-.004.078-.004.152-.008.23-.094.031-.187.066-.281.098 0 .171 0 .343.004.515.097.055.191.117.285.18-.004.082-.004.16-.008.242-.039.012-.117.031-.156.043.285-.02.574-.02.863-.008l-.129-.125v-.133c.051-.054.106-.105.157-.16h.132l.16.16v.22c-.039.01-.117.034-.156.046.285-.02.574-.02.86-.008-.043-.043-.086-.082-.13-.125v-.133c.055-.054.106-.105.157-.16h.133c.058.055.113.11.172.164-.008.121-.016.246-.16.274.28-.043.57-.028.851-.02l-.129-.125v-.133l.16-.16h.13c.058.055.113.11.171.164-.008.117-.012.242-.156.266.262-.031.527-.02.793-.016-.031-.082-.063-.164-.09-.246l.195-.187c0-.176-.004-.356 0-.532a3.897 3.897 0 0 0-.18-.18v-.132c.063-.063.122-.121.18-.184a12.044 12.044 0 0 1 0-.53c-.058-.06-.117-.118-.18-.18v-.13c.063-.062.122-.12.18-.183a12.044 12.044 0 0 1 0-.531c-.058-.059-.117-.121-.18-.18v-.133c.063-.058.122-.117.18-.18a12.044 12.044 0 0 1 0-.53c-.058-.06-.117-.122-.18-.18v-.133c.063-.059.122-.117.18-.18a12.044 12.044 0 0 1 0-.531c-.058-.059-.117-.121-.18-.18v-.133c.063-.058.122-.12.18-.18a12.044 12.044 0 0 1 0-.53c-.058-.06-.117-.122-.18-.18v-.133c.063-.059.122-.121.18-.18a12.044 12.044 0 0 1 0-.531 3.897 3.897 0 0 0-.18-.18v-.133c.063-.058.122-.12.18-.18-.004-.179-.004-.355 0-.53a3.897 3.897 0 0 0-.18-.18v-.133l.18-.18c-.004-.18-.004-.355 0-.53-.058-.063-.117-.122-.18-.185v-.128c.063-.063.122-.122.18-.184a12.044 12.044 0 0 1 0-.531c-.058-.059-.117-.121-.18-.18v-.133c.063-.058.122-.117.18-.18a12.044 12.044 0 0 1 0-.53c-.058-.06-.117-.122-.18-.18V14.3c.063-.059.122-.117.18-.18a12.044 12.044 0 0 1 0-.531c-.058-.059-.117-.121-.18-.18v-.133c.063-.058.122-.12.18-.18a12.044 12.044 0 0 1 0-.53 3.897 3.897 0 0 0-.18-.18v-.13c.06-.062.114-.124.172-.187-1.34-.02-2.68.004-4.015-.011Zm0 0"/><path style="stroke:none;fill-rule:nonzero;fill:#000;fill-opacity:1" d="M7.645 12.098h.132c.055.05.106.101.16.156v.215a7.998 7.998 0 0 0-.285.09l-.164-.176v-.13c.051-.054.106-.105.157-.155ZM8.668 12.098h.137l.156.156v.215c-.094.027-.188.058-.285.09l-.164-.176v-.13l.156-.155ZM9.691 12.098h.137l.156.156v.203l-.168.078-.12.012-.16-.16v-.133l.155-.156ZM13.79 12.098h.132c.05.05.105.101.156.156 0 .07.004.14.004.215-.098.027-.191.058-.285.09l-.164-.176v-.13c.05-.054.105-.105.156-.155ZM14.813 12.098h.132c.055.05.106.101.16.156v.203l-.168.078c-.03.004-.093.008-.124.012a5.967 5.967 0 0 0-.157-.16v-.133c.051-.055.106-.106.156-.156ZM15.836 12.098h.137l.156.156v.215c-.094.027-.188.058-.285.09l-.164-.176v-.13l.156-.155ZM16.863 12.094c.032.004.098.004.133.004l.156.156c0 .07 0 .14.004.215-.097.027-.191.058-.289.09l-.164-.176v-.13l.16-.16ZM19.93 12.098h.136c.051.05.106.101.157.156v.203l-.164.078c-.032.004-.094.008-.125.012-.051-.055-.106-.106-.157-.16v-.133c.051-.055.102-.106.153-.156ZM20.957 12.098h.133c.055.05.105.101.156.156 0 .07.004.14.004.215-.098.027-.191.058-.285.09l-.164-.176v-.13c.05-.054.105-.105.156-.155ZM21.98 12.098h.133c.055.05.106.101.16.156v.215a7.998 7.998 0 0 0-.285.09l-.164-.176v-.13c.051-.054.106-.105.156-.155ZM23.004 12.098h.133c.054.05.105.101.16.156v.215c-.094.027-.188.058-.285.09l-.164-.176v-.13l.156-.155ZM7.133 12.61h.133c.054.05.105.105.16.156v.203a3.32 3.32 0 0 0-.168.082c-.031 0-.094.004-.125.008-.051-.055-.106-.106-.156-.16v-.133l.156-.157ZM8.156 12.61h.137c.05.05.102.1.156.156v.214c-.094.032-.187.063-.285.09-.055-.058-.11-.117-.164-.172v-.132l.156-.157ZM9.18 12.61h.136l.157.156v.214c-.094.032-.188.063-.286.09-.054-.058-.109-.117-.164-.172v-.132c.055-.051.106-.106.157-.157ZM10.207 12.61h.133c.05.05.105.1.156.156v.203c-.043.02-.125.058-.164.078-.031.004-.094.008-.125.012l-.16-.16v-.133c.055-.051.105-.106.16-.157ZM14.3 12.61h.134c.054.05.105.105.16.156v.214c-.098.032-.192.063-.285.09-.055-.058-.11-.117-.164-.172v-.132c.05-.055.105-.106.156-.157ZM15.324 12.61h.133c.055.05.105.1.16.156v.203a3.32 3.32 0 0 0-.168.082c-.031 0-.09.004-.125.008-.05-.055-.105-.106-.156-.16v-.133l.156-.157ZM16.348 12.61h.136c.051.05.102.105.157.156v.203a3.32 3.32 0 0 0-.168.082c-.032 0-.09.004-.121.008l-.16-.16v-.133c.054-.051.105-.106.156-.157ZM19.422 12.61h.133c.05.05.105.1.156.156 0 .07 0 .14.004.214-.098.032-.192.063-.285.09-.055-.058-.11-.117-.164-.172v-.132c.05-.051.101-.106.156-.157ZM20.445 12.61h.133c.055.05.106.1.156.156 0 .07.004.14.004.214-.097.032-.191.063-.285.09a6.976 6.976 0 0 0-.164-.172v-.132c.05-.055.106-.106.156-.157ZM21.469 12.61h.133c.054.05.105.1.16.156v.203a3.32 3.32 0 0 0-.168.082c-.032 0-.094.004-.121.008-.055-.055-.11-.106-.16-.16v-.133l.156-.157ZM22.492 12.61h.137l.156.156v.214c-.094.032-.187.063-.285.09-.055-.058-.11-.117-.164-.172v-.132l.156-.157ZM23.516 12.61h.136l.157.156v.203a3.32 3.32 0 0 0-.168.082c-.032 0-.09.004-.121.008l-.16-.16v-.133c.054-.051.105-.106.156-.157ZM7.645 13.121h.132c.055.05.106.102.16.156v.215a7.996 7.996 0 0 1-.285.09c-.054-.059-.109-.117-.164-.172v-.133l.157-.156ZM8.668 13.121h.137c.05.05.101.106.156.156v.215c-.094.031-.188.063-.285.09a6.98 6.98 0 0 0-.164-.172v-.133c.054-.05.105-.105.156-.156ZM9.695 13.121h.133l.156.156v.203c-.043.02-.125.063-.168.082-.03 0-.09.004-.12.008l-.16-.16v-.133c.054-.05.105-.105.16-.156ZM13.79 13.121h.132c.055.05.105.102.156.156v.203c-.039.02-.121.06-.164.079-.031.004-.094.007-.125.011-.05-.054-.105-.105-.156-.16v-.133l.156-.156ZM14.813 13.121h.132c.055.05.106.102.16.156v.215a7.996 7.996 0 0 1-.285.09c-.054-.059-.11-.117-.164-.172v-.133l.156-.156ZM15.836 13.121h.133c.054.05.105.102.16.156v.203c-.043.02-.125.063-.168.082-.031 0-.094.004-.121.008l-.16-.16v-.133c.054-.05.105-.105.156-.156ZM16.86 13.121h.136c.05.05.102.106.156.156v.203c-.043.02-.125.063-.168.082-.03 0-.09.004-.12.008l-.16-.16v-.133c.054-.05.105-.105.155-.156ZM18.91 13.121h.133c.05.05.105.102.156.156v.203c-.039.02-.125.06-.164.079-.031.004-.094.007-.125.011-.05-.054-.105-.105-.156-.16v-.133c.05-.05.101-.105.156-.156ZM19.934 13.121h.132l.157.156v.203l-.164.082c-.032 0-.094.004-.125.008-.051-.054-.106-.105-.157-.16v-.133c.051-.05.102-.105.157-.156ZM20.957 13.121h.133c.055.05.105.102.156.156v.203l-.164.082c-.031 0-.094.004-.125.008-.05-.054-.105-.105-.156-.16v-.133l.156-.156ZM21.98 13.121h.133c.055.05.106.102.16.156v.203c-.043.02-.125.06-.168.079-.03.004-.093.007-.12.011-.055-.054-.11-.105-.16-.16v-.133l.155-.156ZM23.004 13.121h.133c.054.05.105.102.16.156v.203c-.043.02-.125.06-.168.079-.031.004-.09.007-.121.011l-.16-.16v-.133c.054-.05.105-.105.156-.156ZM24.031 13.121h.133l.156.156v.215c-.093.031-.187.063-.28.09-.06-.059-.114-.117-.169-.172v-.133c.055-.05.106-.105.16-.156ZM25.055 13.121h.133l.156.156v.203c-.043.02-.125.063-.168.082-.031 0-.09.004-.121.008l-.16-.16v-.133c.054-.05.105-.105.16-.156ZM7.133 13.633h.133c.054.05.105.101.16.156v.203c-.043.02-.125.063-.168.082-.031 0-.094.004-.125.008-.051-.055-.106-.105-.156-.16v-.133l.156-.156ZM8.156 13.633h.133c.055.05.106.101.16.156v.203c-.043.02-.125.059-.168.082-.031 0-.094.004-.125.008a5.967 5.967 0 0 0-.156-.16v-.133l.156-.156ZM9.18 13.633h.136l.157.156v.203c-.043.02-.125.063-.168.082-.032 0-.094.004-.121.008l-.16-.16v-.133l.156-.156ZM10.207 13.633h.133c.05.05.105.101.156.156v.203a2.14 2.14 0 0 0-.164.082c-.031 0-.094.004-.125.008l-.16-.16v-.133c.055-.05.105-.105.16-.156ZM14.3 13.633h.134c.054.05.105.105.16.156v.203l-.168.082c-.031 0-.094.004-.125.008-.051-.055-.106-.105-.156-.16v-.133l.156-.156ZM15.324 13.633h.133c.055.05.105.101.16.156v.203c-.043.02-.125.063-.168.082-.031 0-.09.004-.12.008l-.161-.16v-.133l.156-.156ZM16.348 13.633h.136l.157.156v.215c-.094.031-.188.062-.286.09-.054-.059-.109-.117-.164-.172v-.133c.055-.05.106-.105.157-.156ZM17.375 13.633h.133c.05.05.105.101.156.156v.203c-.043.02-.125.063-.168.082-.031 0-.09.004-.121.008l-.16-.16v-.133c.055-.05.105-.105.16-.156ZM18.398 13.633h.133l.157.156v.203a2.14 2.14 0 0 0-.165.082c-.03 0-.093.004-.125.008l-.16-.16v-.133c.055-.05.106-.105.16-.156ZM19.422 13.633h.133c.05.05.105.101.156.156 0 .07 0 .145.004.215-.098.031-.192.062-.285.09-.055-.059-.11-.117-.164-.172v-.133c.05-.05.101-.105.156-.156ZM20.445 13.633h.133c.055.05.106.101.156.156v.203l-.164.082c-.03 0-.093.004-.125.008-.05-.055-.105-.105-.156-.16v-.133l.156-.156ZM21.469 13.633h.133c.054.05.105.101.16.156a1.762 1.762 0 0 0 0 .203l-.168.082c-.032 0-.094.004-.125.008-.051-.055-.106-.105-.157-.16v-.133l.157-.156ZM22.492 13.633h.137c.05.05.101.105.156.156v.215c-.094.031-.187.062-.285.09-.055-.059-.11-.117-.164-.172v-.133l.156-.156ZM23.516 13.633h.136l.157.156v.203c-.043.02-.125.059-.168.082-.028 0-.09.004-.121.008l-.16-.16v-.133c.054-.05.105-.105.156-.156ZM24.543 13.633h.133c.05.05.101.105.156.156v.203c-.043.02-.125.063-.168.082-.031 0-.09.004-.121.008l-.16-.16v-.133c.055-.05.105-.105.16-.156ZM25.566 13.633h.133c.051.05.106.101.156.156v.203c-.043.02-.125.063-.164.082-.03 0-.093.004-.125.008l-.16-.16v-.133c.055-.055.106-.105.16-.156ZM7.645 14.145h.132c.055.05.106.105.16.156v.215a7.998 7.998 0 0 1-.285.09c-.054-.06-.109-.114-.164-.172V14.3l.157-.156ZM8.668 14.145h.133c.054.05.105.105.16.156v.203l-.168.082c-.031 0-.09.008-.121.008l-.16-.16V14.3c.054-.051.105-.106.156-.156ZM9.691 14.145h.137c.05.05.102.105.156.156v.215c-.093.03-.187.062-.285.09-.054-.06-.11-.114-.164-.172V14.3c.055-.051.106-.106.156-.156ZM13.79 14.145h.132c.055.05.105.105.156.156 0 .07.004.144.004.215-.098.03-.191.062-.285.09-.055-.06-.11-.114-.164-.172V14.3c.05-.051.101-.106.156-.156ZM14.813 14.145h.132c.055.05.106.105.16.156v.203l-.168.082c-.03 0-.093.008-.12.008l-.16-.16V14.3l.155-.156ZM15.836 14.145h.133c.054.05.105.105.16.156v.215c-.094.03-.188.062-.285.09-.055-.06-.11-.114-.164-.172V14.3c.054-.051.105-.106.156-.156ZM16.86 14.145h.136c.05.05.102.105.156.156v.215c-.093.03-.187.062-.285.09-.055-.06-.11-.114-.164-.172V14.3c.055-.051.106-.106.156-.156ZM17.887 14.145h.133c.05.05.101.105.156.156v.203c-.043.02-.125.062-.164.082-.032 0-.094.008-.125.008l-.16-.16V14.3c.054-.051.105-.106.16-.156ZM18.91 14.145h.133l.156.156v.203l-.164.082c-.031 0-.094.008-.125.008-.05-.055-.105-.106-.156-.16V14.3c.05-.051.101-.106.156-.156ZM19.934 14.145h.132l.157.156c0 .07.004.144.004.215-.098.03-.192.062-.286.09-.054-.06-.109-.114-.164-.172V14.3l.157-.156ZM20.957 14.145h.133l.156.156c0 .07.004.144.004.215-.098.03-.191.062-.285.09-.055-.06-.11-.114-.164-.172V14.3l.156-.156ZM21.98 14.145h.133c.055.05.106.105.16.156v.215a7.998 7.998 0 0 1-.285.09c-.054-.06-.11-.114-.164-.172V14.3l.156-.156ZM23.004 14.145h.133c.054.05.105.105.16.156v.215c-.094.03-.188.062-.285.09-.055-.06-.11-.114-.164-.172V14.3c.054-.051.105-.106.156-.156ZM24.027 14.145h.137c.05.05.102.105.156.156v.203l-.168.082c-.027 0-.09.008-.12.008l-.16-.16V14.3c.054-.051.105-.106.155-.156ZM25.055 14.145h.133c.05.05.101.105.156.156v.203l-.168.082c-.028 0-.09.008-.121.008l-.16-.16V14.3c.054-.051.105-.106.16-.156ZM7.133 14.656h.133c.054.051.105.106.16.156v.204l-.168.082c-.031 0-.094.007-.125.007a6.118 6.118 0 0 1-.156-.16v-.133l.156-.156ZM8.156 14.656h.133c.055.051.106.106.16.156v.204l-.168.082c-.031 0-.094.007-.12.007-.056-.05-.106-.105-.161-.16v-.133l.156-.156ZM9.18 14.656h.136c.051.051.102.106.157.156v.215c-.094.032-.188.063-.286.09l-.164-.172v-.133l.157-.156ZM10.203 14.656h.137l.156.156v.215c-.094.032-.187.063-.285.09-.055-.058-.11-.113-.164-.172v-.133c.055-.05.105-.105.156-.156ZM14.3 14.656h.134c.054.051.105.106.16.156v.215c-.098.032-.192.063-.285.09-.055-.058-.11-.113-.164-.172v-.133l.156-.156ZM15.324 14.656h.133c.055.051.105.106.16.156v.204l-.168.082c-.031 0-.09.007-.12.007-.056-.05-.106-.105-.161-.16v-.133l.156-.156ZM16.348 14.656h.136c.051.051.102.106.157.156v.215c-.094.032-.188.063-.286.09l-.164-.172v-.133c.055-.05.106-.105.157-.156ZM17.375 14.656h.133l.156.156v.215c-.094.032-.187.063-.281.09-.055-.058-.113-.113-.168-.172v-.133c.055-.05.105-.105.16-.156ZM18.398 14.656h.133l.157.156v.215c-.094.032-.188.063-.282.09a6.892 6.892 0 0 0-.168-.172v-.133c.055-.05.106-.105.16-.156ZM19.422 14.656h.133l.156.156c0 .07 0 .145.004.215-.098.032-.192.063-.285.09-.055-.058-.11-.113-.164-.172v-.133c.05-.05.101-.105.156-.156ZM20.445 14.656h.133c.055.051.106.106.156.156 0 .07.004.145.004.215-.097.032-.191.063-.285.09-.055-.058-.11-.113-.164-.172v-.133l.156-.156ZM21.469 14.656h.133c.054.051.105.106.16.156a1.762 1.762 0 0 0 0 .204l-.168.082c-.032 0-.094.007-.125.007a6.117 6.117 0 0 1-.157-.16v-.133l.157-.156ZM22.492 14.656h.133c.055.051.105.106.16.156v.204l-.168.082c-.031 0-.09.007-.125.007a6.115 6.115 0 0 1-.156-.16v-.133l.156-.156ZM23.516 14.656h.136c.051.051.102.106.157.156v.204l-.168.082c-.032 0-.09.007-.121.007-.055-.05-.106-.105-.16-.16v-.133c.054-.05.105-.105.156-.156ZM24.54 14.656h.136c.05.051.101.106.156.156v.204l-.168.082c-.031 0-.09.007-.121.007-.055-.05-.105-.105-.16-.16v-.133c.055-.05.105-.105.156-.156ZM25.566 14.656h.133l.156.156v.204c-.043.02-.125.062-.164.082-.03 0-.093.007-.125.007-.054-.05-.105-.105-.16-.16v-.133c.055-.05.106-.105.16-.156ZM7.645 15.168h.132c.055.05.106.105.16.156v.203c-.042.02-.125.063-.167.082-.032 0-.094.008-.125.008-.051-.05-.102-.105-.157-.16v-.133l.157-.156ZM8.668 15.168h.133c.054.05.105.105.16.156v.215c-.094.031-.188.063-.285.09a6.976 6.976 0 0 1-.164-.172v-.133c.054-.05.105-.105.156-.156ZM9.695 15.168h.133c.05.05.102.105.156.156v.203c-.043.02-.125.063-.168.082-.027 0-.09.008-.12.008-.055-.05-.106-.105-.16-.16v-.133c.054-.05.105-.105.16-.156ZM13.79 15.168h.132c.055.05.105.105.156.156v.203l-.164.082a1.342 1.342 0 0 1-.125.008c-.05-.05-.105-.105-.156-.16v-.133l.156-.156ZM14.813 15.168h.132c.055.05.106.105.16.156v.215a7.998 7.998 0 0 1-.285.09c-.054-.059-.11-.113-.164-.172v-.133l.156-.156ZM15.836 15.168h.133c.054.05.105.105.16.156v.203c-.043.02-.125.063-.168.082a1.346 1.346 0 0 1-.121.008c-.055-.05-.106-.105-.16-.16v-.133c.054-.05.105-.105.156-.156ZM16.86 15.168h.136c.05.05.102.105.156.156v.203a3.32 3.32 0 0 1-.168.082 1.26 1.26 0 0 1-.12.008c-.055-.05-.106-.105-.16-.16v-.133c.054-.05.105-.105.155-.156ZM17.887 15.168h.133l.156.156v.203c-.043.02-.125.063-.164.082-.032 0-.094.008-.125.008-.055-.05-.106-.105-.16-.16v-.133c.054-.05.105-.105.16-.156ZM18.91 15.168h.133l.156.156v.203c-.039.02-.125.063-.168.082-.027.004-.09.008-.12.008-.052-.05-.106-.105-.157-.16v-.133c.05-.05.101-.105.156-.156ZM20.957 15.168h.133c.055.05.105.105.156.156v.203c-.039.02-.121.063-.164.082-.031 0-.094.008-.125.008-.05-.05-.105-.105-.156-.16v-.133l.156-.156ZM21.98 15.168h.133c.055.05.106.105.16.156v.215a7.998 7.998 0 0 1-.285.09c-.054-.059-.11-.113-.164-.172v-.133l.156-.156ZM23.004 15.168h.133c.054.05.105.105.16.156v.203c-.043.02-.125.063-.168.082a1.346 1.346 0 0 1-.121.008c-.055-.05-.106-.105-.16-.16v-.133c.054-.05.105-.105.156-.156ZM24.027 15.168h.137c.05.05.102.105.156.156v.215c-.093.031-.187.063-.285.09-.055-.059-.11-.113-.164-.172v-.133c.055-.05.106-.105.156-.156ZM25.055 15.168h.133c.05.05.101.105.156.156v.215c-.094.031-.188.063-.285.09-.051-.059-.11-.113-.164-.172v-.133c.054-.05.105-.105.16-.156ZM26.078 15.168h.133l.156.156v.203l-.164.082a1.342 1.342 0 0 1-.125.008c-.05-.05-.105-.105-.156-.16v-.133c.05-.05.101-.105.156-.156ZM7.133 15.68h.133c.054.054.105.105.16.156v.203a3.32 3.32 0 0 1-.168.082c-.031 0-.094.008-.125.008a6.118 6.118 0 0 1-.156-.16v-.133c.05-.05.105-.102.156-.156ZM8.156 15.68h.133c.055.054.106.105.16.156v.203a3.32 3.32 0 0 1-.168.082 1.342 1.342 0 0 1-.125.008c-.05-.05-.101-.106-.156-.16v-.133c.05-.05.105-.102.156-.156ZM9.18 15.68h.136c.051.054.102.105.157.156v.203a3.32 3.32 0 0 1-.168.082c-.032 0-.09.008-.121.008-.055-.05-.106-.106-.16-.16v-.133c.054-.05.105-.102.156-.156ZM10.203 15.68h.137c.05.054.105.105.156.156v.203a3.32 3.32 0 0 1-.168.082c-.027.004-.09.008-.121.008-.055-.05-.105-.106-.16-.16v-.133c.055-.05.105-.102.156-.156ZM14.3 15.68h.134c.054.054.105.105.16.156v.203a3.32 3.32 0 0 1-.168.082 1.342 1.342 0 0 1-.125.008c-.051-.05-.106-.106-.156-.16v-.133l.156-.156ZM15.324 15.68h.133c.055.054.105.105.16.156v.215l-.285.094c-.055-.063-.11-.118-.164-.176v-.133c.05-.05.105-.102.156-.156ZM16.348 15.68h.136c.051.054.102.105.157.156v.215l-.286.094c-.054-.063-.109-.118-.164-.176v-.133c.055-.05.106-.102.157-.156ZM17.371 15.68h.137c.05.054.101.105.156.156v.203a3.32 3.32 0 0 1-.168.082 1.26 1.26 0 0 1-.121.008c-.055-.05-.105-.106-.16-.16v-.133c.055-.05.105-.102.156-.156ZM22.492 15.68h.133c.055.054.105.105.16.156v.215l-.285.094c-.055-.063-.11-.118-.164-.176v-.133c.05-.05.105-.102.156-.156ZM23.516 15.68h.136c.051.054.102.105.157.156v.203a3.32 3.32 0 0 1-.168.082c-.028 0-.09.008-.121.008-.055-.05-.106-.106-.16-.16v-.133c.054-.05.105-.102.156-.156ZM24.54 15.68h.136c.05.054.105.105.156.156v.215l-.281.094c-.059-.06-.113-.118-.168-.176v-.133c.055-.05.105-.102.156-.156ZM25.566 15.68h.133c.051.054.106.105.156.156v.203c-.043.023-.125.063-.164.082-.03 0-.093.008-.125.008-.054-.05-.105-.106-.16-.16v-.133c.055-.05.106-.102.16-.156ZM7.645 16.191h.132c.055.055.106.106.16.157v.218a7.998 7.998 0 0 0-.285.09l-.164-.176v-.132c.051-.051.106-.102.157-.157ZM8.668 16.191h.133c.054.055.105.106.16.157v.215l-.285.093-.164-.176v-.132c.054-.051.105-.102.156-.157ZM9.691 16.191h.137c.05.055.102.106.156.157v.207l-.168.078a1.26 1.26 0 0 1-.12.008c-.055-.051-.106-.106-.16-.157v-.136c.054-.051.105-.102.155-.157ZM13.79 16.191h.132l.156.157c0 .074.004.144.004.215l-.285.093-.164-.176v-.132c.05-.051.105-.102.156-.157ZM14.813 16.191h.132c.055.055.106.106.16.157v.218c-.093.028-.19.059-.285.086-.054-.054-.11-.113-.164-.172v-.132c.051-.051.106-.102.156-.157ZM15.836 16.191h.133c.054.055.105.106.16.157v.207l-.168.078a1.345 1.345 0 0 1-.121.008c-.055-.051-.106-.106-.16-.157v-.136c.054-.051.105-.102.156-.157ZM16.863 16.191h.133c.05.055.102.106.156.157v.207c-.043.02-.125.058-.164.078-.031.004-.093.008-.125.012-.054-.055-.105-.11-.16-.16v-.137c.055-.051.106-.102.16-.157ZM23.004 16.191h.133c.054.055.105.106.16.157v.207l-.168.078a1.26 1.26 0 0 1-.121.008c-.055-.051-.106-.106-.16-.157v-.136c.054-.051.105-.102.156-.157ZM24.031 16.191h.133c.05.055.102.106.156.157v.218c-.093.028-.187.059-.285.086a6.98 6.98 0 0 1-.164-.172v-.132c.055-.051.106-.102.16-.157ZM25.055 16.191h.133c.05.055.101.106.156.157v.215l-.282.093c-.054-.058-.113-.117-.167-.176v-.132c.054-.051.105-.102.16-.157ZM26.078 16.191h.133c.05.055.105.106.156.157v.207c-.039.02-.125.058-.164.078a1.342 1.342 0 0 1-.125.008l-.156-.157v-.136l.156-.157ZM7.133 16.703h.133c.054.055.105.106.16.156v.207l-.168.079c-.031.003-.094.007-.125.011a6.115 6.115 0 0 0-.156-.16v-.137c.05-.05.105-.101.156-.156ZM8.156 16.703h.133c.055.055.106.106.16.156v.215c-.094.031-.187.063-.285.094L8 16.992v-.129c.05-.054.105-.105.156-.16ZM9.18 16.703h.136c.051.055.102.106.157.156v.203a3.318 3.318 0 0 1-.168.083c-.028.003-.09.007-.121.011-.055-.054-.106-.11-.16-.16v-.133a5.97 5.97 0 0 0 .156-.16ZM10.207 16.703h.133c.05.055.105.106.156.156v.207l-.168.079c-.027.003-.09.007-.121.011-.055-.054-.105-.11-.16-.16v-.137c.055-.05.105-.101.16-.156ZM14.3 16.703h.134c.054.055.105.106.16.156v.207l-.168.079c-.031.003-.094.007-.125.011-.051-.054-.106-.11-.156-.16v-.137c.05-.05.105-.101.156-.156ZM15.324 16.703h.133c.055.055.105.106.16.156v.207l-.168.079c-.031.003-.09.007-.12.011-.056-.054-.106-.11-.161-.16v-.133c.05-.054.105-.105.156-.16ZM16.348 16.703h.136c.051.055.102.106.157.156v.207l-.168.079c-.028.003-.09.007-.121.011-.055-.054-.106-.11-.16-.16v-.133c.054-.054.105-.105.156-.16ZM23.516 16.703h.136c.051.05.102.106.157.156v.207c-.043.02-.125.059-.164.079-.032.003-.094.007-.125.011-.055-.054-.106-.11-.16-.16v-.133c.054-.054.105-.105.156-.16ZM24.543 16.703h.133c.05.055.101.106.156.156v.215c-.094.031-.187.063-.285.094l-.164-.176v-.129l.16-.16ZM25.566 16.703h.133c.051.055.106.106.156.156v.207c-.043.02-.125.059-.164.079-.03.003-.093.007-.125.011-.054-.054-.105-.11-.16-.16v-.133l.16-.16ZM7.645 17.215h.132c.055.055.106.105.16.156v.207l-.167.078c-.032.004-.094.008-.122.012-.054-.055-.105-.11-.16-.16v-.133c.051-.055.106-.105.157-.16ZM8.668 17.215h.137c.05.055.101.105.156.156v.207l-.168.078-.121.012c-.055-.055-.106-.11-.16-.16v-.133c.054-.055.105-.105.156-.16ZM9.695 17.215h.133c.05.055.102.105.156.156v.215l-.285.094-.164-.176v-.129l.16-.16ZM13.79 17.215h.132l.156.156v.207c-.039.02-.121.059-.164.078-.031.004-.094.008-.125.012a6.117 6.117 0 0 0-.156-.16v-.137c.05-.05.105-.101.156-.156ZM14.813 17.215h.132c.055.055.106.105.16.156v.207l-.168.078c-.03.004-.093.008-.124.012-.051-.055-.106-.11-.157-.16v-.137c.051-.05.106-.101.156-.156ZM15.836 17.215h.137c.05.055.101.105.156.16v.215c-.094.027-.188.058-.285.09l-.164-.176v-.129c.054-.055.105-.105.156-.16ZM16.863 17.215h.133c.05.055.102.105.156.156v.207l-.168.078-.12.012c-.055-.055-.106-.11-.16-.16v-.137a5.97 5.97 0 0 0 .16-.156ZM23.004 17.215h.137c.05.055.101.105.156.156v.207l-.168.078-.121.012c-.055-.055-.106-.11-.16-.16v-.133c.05-.055.105-.105.156-.16ZM24.031 17.215h.133c.05.055.102.105.156.156v.215l-.28.094a6.977 6.977 0 0 1-.169-.176v-.133c.055-.05.106-.101.16-.156ZM25.055 17.215h.133c.05.055.101.105.156.156v.207l-.164.078c-.032.004-.094.008-.125.012-.055-.055-.106-.11-.16-.16v-.133l.16-.16ZM26.078 17.215h.133c.05.055.105.105.156.156v.207c-.039.02-.125.059-.164.078-.031.004-.094.008-.125.012-.05-.055-.105-.11-.156-.16v-.133c.05-.055.101-.105.156-.16ZM7.133 17.727h.133l.16.16v.203c-.043.02-.13.058-.168.078-.031.004-.094.008-.125.012a6.115 6.115 0 0 0-.156-.16v-.133c.05-.055.105-.106.156-.16ZM8.156 17.727h.133l.16.16v.215c-.094.027-.187.058-.285.09L8 18.015v-.13c.05-.054.105-.105.156-.16ZM9.18 17.727h.136c.051.054.102.105.157.16v.215c-.094.027-.188.058-.286.09-.054-.06-.109-.118-.164-.176v-.13c.055-.054.106-.105.157-.16ZM10.207 17.727h.133c.05.054.105.105.156.16v.203c-.043.02-.125.058-.164.078-.031.004-.094.008-.125.012-.055-.055-.105-.11-.16-.16v-.133l.16-.16ZM14.3 17.727h.134l.16.16v.215c-.098.027-.192.058-.285.09l-.164-.176v-.13c.05-.054.105-.105.156-.16ZM15.324 17.727h.133l.16.16v.215c-.094.027-.187.058-.285.09l-.164-.176v-.13c.05-.054.105-.105.156-.16ZM16.348 17.727h.136c.051.054.102.105.157.16v.203l-.168.078c-.032.004-.094.008-.121.012-.055-.055-.106-.11-.16-.16v-.133c.054-.055.105-.106.156-.16ZM23.516 17.727h.136c.051.054.102.105.157.16v.203l-.168.078c-.028.004-.09.008-.121.012-.055-.055-.106-.11-.16-.16v-.133c.054-.055.105-.106.156-.16ZM24.543 17.727h.133c.05.054.101.105.156.16v.215c-.094.027-.187.058-.281.09a6.98 6.98 0 0 1-.168-.176v-.13l.16-.16ZM25.566 17.727h.133c.051.054.106.105.156.16v.215c-.093.027-.187.058-.28.09-.055-.06-.11-.118-.169-.176v-.13l.16-.16ZM7.645 18.238h.132l.16.16v.204l-.167.078c-.032.004-.094.008-.125.011-.051-.054-.102-.109-.157-.16v-.133c.051-.054.106-.105.157-.16ZM8.668 18.238h.133l.16.16v.204l-.168.078c-.031.004-.09.008-.121.011-.055-.054-.106-.109-.16-.16v-.133c.054-.054.105-.105.156-.16ZM9.691 18.238h.137c.05.055.102.106.156.16v.215c-.093.028-.187.059-.285.09l-.164-.176v-.129c.055-.054.106-.105.156-.16ZM13.79 18.238h.132c.055.055.105.106.156.16v.204c-.039.02-.121.058-.164.078-.031.004-.094.008-.125.011a6.116 6.116 0 0 0-.156-.16v-.133c.05-.054.105-.105.156-.16ZM14.813 18.238h.132l.16.16v.215a7.998 7.998 0 0 0-.285.09l-.164-.176v-.129c.051-.054.106-.105.156-.16ZM15.836 18.238h.137c.05.055.101.106.156.16v.215c-.094.028-.188.059-.285.09l-.164-.176v-.129c.054-.054.105-.105.156-.16ZM16.863 18.238h.133c.05.055.102.106.156.16v.204l-.168.078c-.03.004-.09.008-.12.011-.055-.054-.106-.109-.16-.16v-.133l.16-.16ZM23.004 18.238h.133l.16.16v.204l-.168.078c-.031.004-.094.008-.125.011-.05-.054-.102-.109-.156-.16v-.133c.05-.054.105-.105.156-.16ZM24.031 18.238h.133c.05.055.102.106.156.16v.204l-.168.078c-.027.004-.09.008-.12.011-.055-.054-.106-.109-.16-.16v-.133l.16-.16ZM25.055 18.238h.133c.05.055.101.106.156.16v.215c-.094.028-.188.059-.282.09-.054-.058-.113-.117-.167-.176v-.129l.16-.16ZM26.078 18.238h.133c.05.055.105.106.156.16v.204c-.039.02-.125.058-.164.078-.031.004-.094.008-.125.011-.05-.054-.105-.109-.156-.16v-.133c.05-.054.101-.105.156-.16ZM7.133 18.754h.133c.054.05.105.101.16.156v.203l-.168.078c-.031.004-.094.008-.125.012a6.116 6.116 0 0 0-.156-.16v-.133c.05-.055.105-.105.156-.156ZM8.156 18.754h.137l.156.156v.203l-.168.078c-.031.004-.094.008-.125.012-.05-.055-.101-.11-.156-.16v-.133c.05-.055.105-.105.156-.156ZM9.18 18.754h.136l.157.156v.203l-.168.078-.121.012c-.055-.055-.106-.11-.16-.16v-.133l.156-.156ZM10.203 18.754h.137c.05.05.105.101.156.156v.215c-.094.027-.187.059-.285.09l-.164-.176v-.129l.156-.156ZM14.3 18.754h.134c.054.05.105.101.16.156v.203l-.168.078c-.031.004-.094.008-.125.012-.051-.055-.106-.11-.156-.16v-.133c.05-.055.105-.105.156-.156ZM15.324 18.754h.137l.156.156v.203l-.168.078-.12.012c-.056-.055-.106-.11-.161-.16v-.133c.05-.055.105-.105.156-.156ZM16.348 18.754h.136l.157.156v.203l-.168.078c-.032.004-.094.008-.121.012-.055-.055-.106-.11-.16-.16v-.133l.156-.156ZM23.516 18.754h.136l.157.156v.203l-.168.078c-.032.004-.094.008-.121.012-.055-.055-.106-.11-.16-.16v-.133l.156-.156ZM24.543 18.754h.133l.156.156v.203l-.164.078c-.031.004-.094.008-.125.012-.055-.055-.105-.11-.16-.16v-.133c.055-.055.105-.105.16-.156ZM25.566 18.754h.133c.051.05.106.101.156.156v.203l-.164.078c-.03.004-.093.008-.125.012-.054-.055-.105-.11-.16-.16v-.133c.055-.055.106-.105.16-.156ZM7.645 19.266h.132c.055.05.106.101.16.156v.203l-.167.078c-.032.004-.094.008-.125.012a5.966 5.966 0 0 0-.157-.16v-.133c.051-.055.106-.106.157-.156ZM8.668 19.266h.133c.054.05.105.101.16.156v.203l-.168.078c-.031.004-.094.008-.121.012-.055-.055-.106-.11-.16-.16v-.133l.156-.156ZM9.691 19.266h.137l.156.156v.203l-.168.078-.12.012-.16-.16v-.133l.155-.156ZM13.79 19.266h.132c.055.05.105.101.156.156v.203c-.039.02-.121.059-.164.078-.031.004-.094.008-.125.012a6.115 6.115 0 0 0-.156-.16v-.133c.05-.055.105-.106.156-.156ZM14.813 19.266h.132c.055.05.106.101.16.156v.203l-.168.078c-.03.004-.093.008-.12.012l-.16-.16v-.133c.05-.055.105-.106.155-.156ZM15.836 19.266h.133c.054.05.105.101.16.156v.215c-.094.027-.188.062-.285.09-.055-.059-.11-.118-.164-.172v-.133l.156-.156ZM16.86 19.266h.136l.156.156v.203l-.168.078-.12.012-.16-.16v-.133c.05-.055.105-.106.155-.156ZM23.004 19.266h.133c.054.05.105.101.16.156v.203l-.168.078-.121.012-.16-.16v-.133l.156-.156ZM24.027 19.266h.137l.156.156v.215c-.093.027-.187.062-.28.09-.06-.059-.114-.118-.169-.172v-.133l.156-.156ZM25.055 19.266h.133l.156.156v.215c-.094.027-.188.062-.282.09-.054-.059-.113-.118-.167-.176v-.13c.054-.054.105-.105.16-.155ZM26.078 19.266h.133c.05.05.105.101.156.156v.203c-.039.02-.125.059-.168.078-.027.004-.09.008-.12.012-.052-.055-.106-.11-.157-.16v-.133c.05-.055.101-.106.156-.156ZM7.133 19.777h.133c.054.051.105.102.16.157v.214a7.996 7.996 0 0 1-.285.09 6.978 6.978 0 0 0-.164-.172v-.132l.156-.157ZM8.156 19.777h.133c.055.051.106.102.16.157v.214c-.094.032-.187.059-.285.09-.055-.058-.11-.117-.164-.172v-.132l.156-.157ZM9.18 19.777h.136l.157.157v.203l-.168.078c-.028.004-.09.008-.121.012-.055-.055-.106-.11-.16-.16v-.133c.054-.051.105-.106.156-.157ZM10.203 19.777h.137c.05.051.105.102.156.157v.203c-.043.02-.125.058-.168.082-.031 0-.09.004-.121.008l-.16-.16v-.133c.055-.051.105-.106.156-.157ZM14.3 19.777h.134c.054.051.105.102.16.157v.214c-.098.032-.192.063-.285.09-.055-.058-.11-.117-.164-.172v-.132l.156-.157ZM15.324 19.777h.137c.05.051.101.106.156.157v.203c-.043.02-.125.058-.168.082-.031 0-.094.004-.125.008-.05-.055-.101-.106-.156-.16v-.133l.156-.157ZM16.348 19.777h.136l.157.157v.203c-.043.02-.125.058-.168.082-.032 0-.094.004-.121.008l-.16-.16v-.133c.054-.051.105-.106.156-.157ZM23.516 19.777h.136l.157.157v.214c-.094.032-.188.063-.286.09-.054-.058-.109-.117-.164-.172v-.132c.055-.051.106-.106.157-.157ZM24.54 19.777h.136l.156.157v.214c-.094.028-.187.063-.285.09a6.978 6.978 0 0 0-.164-.172v-.132c.055-.051.105-.106.156-.157ZM25.566 19.777h.133c.051.051.106.102.156.157v.203a2.14 2.14 0 0 0-.164.082c-.03 0-.093.004-.125.008l-.16-.16v-.133c.055-.051.106-.106.16-.157ZM7.645 20.29h.132c.055.05.106.1.16.155v.203c-.042.02-.125.063-.167.082-.032 0-.094.004-.125.008a5.967 5.967 0 0 0-.157-.16v-.133c.051-.054.106-.105.157-.156ZM8.668 20.29h.137l.156.155v.203l-.168.079c-.031.003-.09.007-.121.011l-.16-.16v-.133c.054-.05.105-.105.156-.156ZM9.695 20.29h.133l.156.155v.215c-.093.027-.187.063-.285.09-.054-.059-.11-.117-.164-.172v-.133c.055-.05.106-.105.16-.156ZM13.79 20.29h.132c.055.05.105.1.156.155 0 .07.004.145.004.215a7.998 7.998 0 0 0-.285.09 6.974 6.974 0 0 0-.164-.172v-.133l.156-.156ZM14.813 20.29h.132c.055.05.106.105.16.155v.203l-.168.079c-.03.003-.093.007-.12.011l-.16-.16v-.133l.155-.156ZM15.836 20.29h.133c.054.05.105.1.16.155v.203c-.043.02-.125.059-.168.082-.031 0-.09.004-.121.008l-.16-.16v-.133l.156-.156ZM16.863 20.29h.133c.05.05.102.105.156.155v.203c-.043.02-.125.063-.168.082-.03 0-.09.004-.12.008l-.16-.16v-.133c.054-.05.105-.105.16-.156ZM23.004 20.29h.133c.054.05.105.1.16.155v.203l-.168.079c-.031.003-.09.007-.121.011l-.16-.16v-.133l.156-.156ZM24.031 20.29h.133l.156.155v.203c-.043.02-.125.059-.168.082-.027 0-.09.004-.12.008l-.16-.16v-.133c.054-.054.105-.105.16-.156ZM25.055 20.29h.133l.156.155v.215c-.094.027-.188.059-.282.09a7.05 7.05 0 0 0-.167-.172v-.133c.054-.05.105-.105.16-.156ZM26.078 20.29h.133c.05.05.105.1.156.155 0 .07 0 .145.004.215-.098.031-.191.059-.285.09a6.978 6.978 0 0 0-.164-.172v-.133c.05-.05.101-.105.156-.156ZM7.133 20.8h.133c.054.052.105.106.16.157v.203a3.32 3.32 0 0 0-.168.082c-.031 0-.094.004-.125.008-.051-.055-.106-.105-.156-.16v-.133l.156-.156ZM8.156 20.8h.133c.055.052.106.106.16.157v.203c-.043.02-.125.063-.168.082-.031 0-.094.004-.125.008A5.966 5.966 0 0 0 8 21.09v-.133l.156-.156ZM9.18 20.8h.136c.051.052.102.106.157.157v.215c-.094.031-.188.062-.286.09-.054-.059-.109-.117-.164-.172v-.133c.055-.05.106-.105.157-.156ZM10.207 20.8h.133c.05.052.105.106.156.157v.203c-.043.02-.125.059-.164.082-.031 0-.094.004-.125.008l-.16-.16v-.133c.055-.05.105-.105.16-.156ZM14.3 20.8h.134c.054.052.105.106.16.157v.203c-.043.02-.125.063-.168.082-.031 0-.094.004-.125.008-.051-.055-.106-.105-.156-.16v-.133l.156-.156ZM15.324 20.8h.133c.055.052.105.106.16.157v.203c-.043.02-.125.063-.168.082-.031 0-.094.004-.125.008-.05-.055-.105-.105-.156-.16v-.133l.156-.156ZM16.348 20.8h.136c.051.052.102.106.157.157v.203c-.043.02-.125.063-.168.082-.032 0-.094.004-.121.008l-.16-.16v-.133c.054-.05.105-.105.156-.156ZM23.516 20.8h.136c.051.052.102.106.157.157v.203a3.32 3.32 0 0 0-.168.082c-.028 0-.09.004-.121.008l-.16-.16v-.133c.054-.05.105-.105.156-.156ZM24.543 20.8h.133c.05.052.101.106.156.157v.203c-.043.02-.125.063-.168.082-.027 0-.09.004-.121.008l-.16-.16v-.133c.055-.05.105-.105.16-.156ZM25.566 20.8h.133l.156.157v.203c-.043.02-.125.059-.164.082-.03 0-.093.004-.125.008l-.16-.16v-.133c.055-.05.106-.105.16-.156ZM7.645 21.313h.132c.055.05.106.105.16.156v.203l-.167.082c-.032 0-.094.008-.125.008a5.967 5.967 0 0 0-.157-.16v-.133l.157-.157ZM8.668 21.313h.133c.054.05.105.105.16.156v.203a3.32 3.32 0 0 1-.168.082c-.031 0-.094.008-.121.008l-.16-.16v-.133c.054-.051.105-.106.156-.157ZM9.695 21.313h.133c.05.05.102.105.156.156v.203l-.168.082c-.027 0-.09.008-.12.008l-.16-.16v-.133c.054-.051.105-.106.16-.157ZM13.79 21.313h.132c.055.05.105.105.156.156v.203c-.039.02-.121.062-.164.082-.031 0-.094.008-.125.008-.05-.055-.105-.106-.156-.16v-.133l.156-.157ZM14.813 21.313h.132c.055.05.106.105.16.156v.203l-.168.082c-.03 0-.093.008-.12.008l-.16-.16v-.133l.155-.157ZM15.836 21.313h.133c.054.05.105.105.16.156v.215c-.094.03-.188.062-.285.09-.055-.06-.11-.114-.164-.172v-.133c.054-.051.105-.106.156-.157ZM16.86 21.313h.136c.05.05.102.105.156.156v.203l-.168.082c-.03 0-.09.008-.12.008l-.16-.16v-.133c.054-.051.105-.106.155-.157ZM23.004 21.313h.133c.054.05.105.105.16.156v.215c-.094.03-.188.062-.285.09-.055-.06-.11-.114-.164-.172v-.133c.054-.051.105-.106.156-.157ZM24.027 21.313h.137c.05.05.102.105.156.156v.215c-.093.03-.187.062-.28.09-.06-.06-.114-.114-.169-.172v-.133c.055-.051.106-.106.156-.157ZM25.055 21.313h.133c.05.05.101.105.156.156v.203c-.043.02-.125.062-.164.082-.032 0-.094.008-.125.008l-.16-.16v-.133c.054-.051.105-.106.16-.157ZM26.078 21.313h.133l.156.156c0 .07 0 .144.004.215-.098.03-.191.062-.285.09-.055-.06-.11-.114-.164-.172v-.133c.05-.051.101-.106.156-.157ZM7.133 21.824h.133c.054.051.105.106.16.156v.204l-.168.082c-.031 0-.094.007-.125.007-.051-.05-.106-.105-.156-.16v-.133l.156-.156ZM8.156 21.824h.137c.05.051.102.106.156.156v.204l-.168.082c-.031 0-.094.007-.12.007-.056-.05-.106-.105-.161-.16v-.133l.156-.156ZM9.18 21.824h.136c.051.051.102.106.157.156v.204l-.168.082c-.032 0-.09.007-.121.007-.055-.05-.106-.105-.16-.16v-.133c.054-.05.105-.105.156-.156ZM10.207 21.824h.133l.156.156v.215c-.094.032-.187.063-.281.09-.059-.058-.113-.113-.168-.172v-.133c.055-.05.105-.105.16-.156ZM14.3 21.824h.134c.054.051.105.106.16.156v.215a7.998 7.998 0 0 1-.285.09c-.055-.058-.11-.113-.164-.172v-.133l.156-.156ZM15.324 21.824h.133c.055.051.105.106.16.156v.215c-.094.032-.187.063-.285.09-.055-.058-.11-.113-.164-.172v-.133l.156-.156ZM16.348 21.824h.136c.051.051.102.106.157.156v.215c-.094.032-.188.063-.286.09l-.164-.172v-.133c.055-.05.106-.105.157-.156ZM23.516 21.824h.136c.051.051.102.106.157.156v.204l-.168.082c-.028 0-.09.007-.121.007-.055-.05-.106-.105-.16-.16v-.133c.054-.05.105-.105.156-.156ZM24.543 21.824h.133c.05.051.101.106.156.156v.215c-.094.032-.187.063-.281.09-.059-.058-.113-.113-.168-.172v-.133c.055-.05.105-.105.16-.156ZM25.566 21.824h.133l.156.156v.215c-.093.032-.187.063-.28.09-.055-.058-.11-.113-.169-.172v-.133c.055-.05.106-.105.16-.156ZM7.645 22.336h.132c.055.05.106.105.16.156v.203a3.32 3.32 0 0 1-.167.082c-.032 0-.094.008-.122.008-.054-.05-.105-.105-.16-.16v-.133l.157-.156ZM8.668 22.336h.133c.054.05.105.105.16.156v.215c-.094.031-.188.063-.285.09-.055-.059-.11-.113-.164-.172v-.133c.054-.05.105-.105.156-.156ZM9.695 22.336h.133c.05.05.102.105.156.156v.203c-.043.024-.125.063-.164.082-.03 0-.093.008-.125.008-.054-.05-.105-.105-.16-.16v-.133c.055-.05.106-.105.16-.156ZM13.79 22.336h.136l.152.156v.203c-.039.024-.121.063-.164.082-.031 0-.094.008-.125.008-.05-.05-.105-.105-.156-.16v-.133l.156-.156ZM14.813 22.336h.132c.055.05.106.105.16.156v.203a3.32 3.32 0 0 1-.168.082c-.03 0-.093.008-.12.008-.055-.05-.106-.105-.16-.156v-.137l.155-.156ZM15.836 22.336h.133c.054.05.105.105.16.156v.203a3.32 3.32 0 0 1-.168.082 1.346 1.346 0 0 1-.121.008c-.055-.05-.106-.105-.16-.16v-.133c.054-.05.105-.105.156-.156ZM16.863 22.336h.13c.054.05.109.105.163.156-.004.07-.004.137 0 .203-.043.024-.129.063-.168.082-.031 0-.093.008-.125.008-.054-.05-.105-.105-.16-.16v-.133c.055-.05.106-.105.16-.156ZM23.004 22.336h.133c.054.05.105.105.16.156v.203a3.32 3.32 0 0 1-.168.082c-.031 0-.09.008-.121.012l-.16-.164v-.133c.054-.05.105-.105.156-.156ZM24.031 22.336h.133c.05.05.102.105.156.156v.215c-.093.031-.187.063-.285.09-.055-.059-.11-.113-.164-.172v-.133c.055-.05.106-.105.16-.156ZM25.055 22.336h.133c.05.05.101.105.156.156v.215c-.094.031-.188.063-.282.09-.054-.059-.113-.113-.167-.172v-.133c.054-.05.105-.105.16-.156ZM26.078 22.336h.133l.156.156v.203c-.039.024-.125.063-.164.082-.031 0-.094.008-.125.008a3.022 3.022 0 0 1-.156-.16v-.133c.05-.05.101-.105.156-.156ZM7.133 22.848h.137c.05.054.101.105.156.156v.203a3.318 3.318 0 0 1-.168.082 1.342 1.342 0 0 1-.125.008 6.12 6.12 0 0 1-.156-.16v-.133c.05-.05.105-.102.156-.156ZM8.156 22.848h.137c.05.05.102.105.156.156v.215l-.285.093c-.055-.062-.11-.117-.164-.175v-.133c.05-.05.105-.102.156-.156ZM9.18 22.848h.136c.051.054.102.105.157.156v.215c-.094.031-.188.062-.286.09-.054-.059-.109-.114-.164-.172v-.133c.055-.05.106-.102.157-.156ZM10.207 22.848h.133l.156.156v.215l-.281.093c-.055-.062-.113-.117-.168-.175v-.133c.055-.05.105-.102.16-.156ZM14.3 22.848h.137c.051.054.102.105.157.156v.203a3.318 3.318 0 0 1-.168.082 1.342 1.342 0 0 1-.125.008c-.051-.05-.106-.106-.156-.16v-.133c.05-.05.105-.102.156-.156ZM15.324 22.848h.133c.055.054.105.105.16.156v.203a3.318 3.318 0 0 1-.168.082 1.342 1.342 0 0 1-.125.008c-.05-.05-.105-.106-.156-.16v-.133c.05-.05.105-.102.156-.156ZM16.348 22.848h.136c.051.054.102.105.157.156v.215l-.286.093c-.054-.062-.109-.117-.164-.175v-.133c.055-.05.106-.102.157-.156ZM23.516 22.848h.136c.051.054.102.105.157.156v.203a3.318 3.318 0 0 1-.168.082c-.032 0-.094.008-.121.008-.055-.05-.106-.106-.16-.16v-.133c.054-.05.105-.102.156-.156ZM24.543 22.848h.133c.05.05.101.105.156.156v.215c-.094.031-.187.062-.281.09-.059-.059-.113-.114-.168-.172v-.133c.055-.05.105-.102.16-.156ZM25.566 22.848h.133c.051.054.106.105.156.156v.203c-.043.023-.125.063-.164.082-.03 0-.093.008-.125.008-.054-.05-.105-.106-.16-.16v-.133c.055-.05.106-.106.16-.156ZM7.645 23.36h.132c.055.054.106.105.16.156v.207l-.167.078c-.032.004-.094.008-.125.012a3.022 3.022 0 0 0-.157-.16v-.137c.051-.051.106-.102.157-.157ZM8.668 23.36h.133c.054.05.105.105.16.156v.218c-.094.028-.188.059-.285.09l-.164-.176v-.132c.054-.051.105-.102.156-.157ZM9.691 23.36h.137c.05.05.102.105.156.156v.207c-.043.02-.125.058-.164.078-.03.004-.093.008-.125.012-.054-.055-.105-.11-.16-.16v-.133c.05-.055.106-.106.156-.16ZM13.79 23.36h.132c.055.05.105.105.156.156 0 .074.004.144.004.214l-.285.094-.164-.176v-.132c.05-.051.105-.102.156-.157ZM14.813 23.36h.132c.055.05.106.105.16.156v.214c-.093.032-.19.063-.285.094l-.164-.176v-.132c.051-.051.106-.102.156-.157ZM15.836 23.36h.137c.05.054.101.105.156.156v.207l-.168.078c-.031.004-.094.008-.121.012-.055-.055-.106-.11-.16-.165v-.132c.05-.051.105-.102.156-.157ZM16.863 23.36h.133c.05.05.102.105.156.156v.214c-.093.032-.187.063-.285.094l-.164-.176v-.132c.055-.051.106-.102.16-.157ZM23.004 23.36h.133c.054.05.105.105.16.156v.214l-.285.094-.164-.176v-.132c.054-.051.105-.102.156-.157ZM24.027 23.36h.137c.05.054.102.105.156.156v.214c-.093.032-.187.063-.285.094l-.164-.176v-.132c.055-.051.106-.102.156-.157ZM25.055 23.36h.133c.05.054.101.105.156.156v.207l-.168.078-.121.012c-.055-.055-.106-.11-.16-.16v-.137c.054-.051.105-.102.16-.157ZM26.078 23.36h.133l.156.156v.207c-.039.02-.125.058-.164.078-.031.004-.094.008-.125.012-.05-.055-.105-.11-.156-.16v-.137l.156-.157ZM7.133 23.871h.133c.054.055.105.106.16.156v.22c-.098.026-.192.058-.285.089l-.164-.176v-.129c.05-.054.105-.105.156-.16ZM8.156 23.871h.133c.055.055.106.106.16.156v.207l-.168.078c-.031.004-.094.008-.12.012-.056-.054-.106-.11-.161-.16v-.137c.05-.05.105-.101.156-.156ZM9.18 23.871h.136c.051.055.102.106.157.156v.207l-.168.078c-.032.004-.094.008-.121.012-.055-.054-.106-.11-.16-.16v-.133c.054-.054.105-.105.156-.16ZM10.203 23.871h.137c.05.055.105.106.156.156v.207l-.164.078c-.031.004-.094.008-.125.012-.055-.054-.105-.11-.16-.16v-.133c.055-.054.105-.105.156-.16ZM14.3 23.871h.134c.054.055.105.106.16.156v.207c-.043.02-.13.059-.168.078-.031.004-.094.008-.125.012-.051-.054-.106-.11-.156-.16v-.137c.05-.05.105-.101.156-.156ZM15.324 23.871h.133c.055.055.105.106.16.156v.207l-.168.078c-.031.004-.094.008-.125.012a3.022 3.022 0 0 0-.156-.16v-.137c.05-.05.105-.101.156-.156ZM16.348 23.871h.136c.051.055.102.106.157.156v.22c-.094.026-.188.058-.286.089l-.164-.176v-.129c.055-.054.106-.105.157-.16ZM23.516 23.871h.136c.051.055.102.106.157.156v.215c-.094.031-.188.063-.286.094l-.164-.176v-.129c.055-.054.106-.105.157-.16ZM24.54 23.871h.136c.05.055.101.106.156.156v.215l-.281.094c-.059-.059-.113-.117-.168-.176v-.129c.055-.054.105-.105.156-.16ZM25.566 23.871h.133c.051.055.106.106.156.156v.22c-.093.026-.187.058-.28.089-.055-.059-.11-.117-.169-.176v-.129l.16-.16ZM7.645 24.383h.132c.055.055.106.105.16.156v.207l-.167.078c-.032.004-.094.008-.125.012-.051-.055-.102-.11-.157-.16v-.133c.051-.055.106-.105.157-.16ZM8.668 24.383h.133c.054.055.105.105.16.156v.207l-.168.078-.121.012c-.055-.055-.106-.11-.16-.16v-.133c.054-.055.105-.105.156-.16ZM9.695 24.383h.133c.05.055.102.105.156.156v.215l-.285.094c-.05-.059-.11-.118-.164-.176v-.133c.055-.05.106-.102.16-.156ZM13.79 24.383h.132c.055.055.105.105.156.16v.203c-.039.02-.121.059-.164.078-.031.004-.094.008-.125.012a6.115 6.115 0 0 0-.156-.16v-.137c.05-.05.105-.102.156-.156ZM14.813 24.383h.132c.055.055.106.105.16.156v.207l-.168.078c-.03.004-.093.008-.124.012-.051-.055-.106-.11-.157-.16v-.133c.051-.055.106-.105.156-.16ZM15.836 24.383h.133c.054.055.105.105.16.156v.207l-.168.078c-.031.004-.094.008-.121.012-.055-.055-.106-.11-.16-.16v-.137c.054-.05.105-.102.156-.156ZM16.86 24.383h.136c.05.055.102.105.156.156v.215l-.285.094-.164-.176v-.129c.055-.055.106-.105.156-.16ZM23.004 24.383h.133c.054.055.105.105.16.156v.207l-.168.078-.121.012c-.055-.055-.106-.11-.16-.16v-.137c.054-.05.105-.102.156-.156ZM24.027 24.383h.137c.05.055.102.105.156.156v.207l-.168.078c-.027.004-.09.008-.12.012-.055-.055-.106-.11-.16-.16v-.137c.054-.05.105-.102.155-.156ZM25.055 24.383h.133c.05.055.101.105.156.156v.215l-.282.094c-.054-.059-.113-.118-.167-.176v-.129l.16-.16ZM26.078 24.383h.133c.05.055.105.105.156.156 0 .074 0 .145.004.219-.098.027-.191.058-.285.09l-.164-.176v-.133l.156-.156ZM7.133 24.895h.133l.16.16v.203c-.043.02-.13.058-.168.078-.031.004-.094.008-.125.012a6.116 6.116 0 0 0-.156-.16v-.133c.05-.055.105-.106.156-.16ZM8.156 24.895h.137c.05.054.102.105.156.16v.215c-.094.027-.187.058-.285.09L8 25.183v-.13c.05-.054.105-.105.156-.16ZM9.18 24.895h.136c.051.054.102.105.157.16v.203c-.043.02-.125.058-.164.078-.032.004-.094.008-.125.012-.055-.055-.106-.11-.16-.16v-.133c.054-.055.105-.106.156-.16ZM10.203 24.895h.137c.05.054.105.105.156.16v.203c-.043.02-.125.058-.164.078-.031.004-.094.008-.125.012-.055-.055-.105-.11-.16-.16v-.133c.055-.055.105-.106.156-.16ZM14.3 24.895h.134l.16.16v.203l-.168.078c-.031.004-.094.008-.125.012-.051-.055-.106-.11-.156-.16v-.133c.05-.055.105-.106.156-.16ZM15.324 24.895h.137c.05.054.101.105.156.16v.203l-.168.078c-.031.004-.094.008-.125.012-.05-.055-.105-.11-.156-.16v-.133c.05-.055.105-.106.156-.16ZM16.348 24.895h.136c.051.054.102.105.157.16v.203l-.168.078c-.032.004-.094.008-.121.012-.055-.055-.106-.11-.16-.16v-.133c.054-.055.105-.106.156-.16ZM23.516 24.895h.136c.051.054.102.105.157.16v.203l-.168.078-.121.012c-.055-.055-.106-.11-.16-.16v-.133c.054-.055.105-.106.156-.16ZM24.543 24.895h.133c.05.054.101.105.156.16v.203c-.043.02-.125.058-.164.078-.031.004-.094.008-.125.012-.055-.055-.105-.11-.16-.16v-.137c.055-.051.105-.102.16-.156ZM25.566 24.895h.133c.051.054.106.105.156.16v.215c-.093.027-.187.058-.28.09-.055-.06-.11-.118-.169-.176v-.13l.16-.16Zm0 0"/></svg>